<?xml version="1.0" encoding="utf-8"?>
<!-- Generator: Adobe Illustrator 16.0.0, SVG Export Plug-In . SVG Version: 6.00 Build 0)  -->
<!DOCTYPE svg PUBLIC "-//W3C//DTD SVG 1.1//EN" "http://www.w3.org/Graphics/SVG/1.1/DTD/svg11.dtd">
<svg version="1.1" id="Layer_1" xmlns="http://www.w3.org/2000/svg" xmlns:xlink="http://www.w3.org/1999/xlink" x="0px" y="0px"
	 width="86px" height="19px" viewBox="0 0 86 19" enable-background="new 0 0 86 19" xml:space="preserve">
<g>
	<path fill="#4256E7" d="M2.2,3.503V0.504h14.396v2.999h-5.549V18H7.748V3.503H2.2z"/>
	<path fill="#4256E7" d="M27.247,11.852c0,3.549-2.425,6.423-6.424,6.423s-6.398-2.874-6.398-6.423c0-3.525,2.449-6.424,6.373-6.424
		C24.722,5.428,27.247,8.327,27.247,11.852z M17.474,11.852c0,1.874,1.124,3.623,3.349,3.623s3.35-1.749,3.35-3.623
		c0-1.85-1.3-3.649-3.35-3.649C18.624,8.202,17.474,10.002,17.474,11.852z"/>
	<path fill="#4256E7" d="M42.846,14.926l2.824-9.273h3.375l-4.299,12.396h-3.549L39.921,14.4l-1.1-4.124l-1.1,4.124l-1.274,3.648
		h-3.549L28.575,5.652h3.399l2.824,9.273l2.674-9.273h2.675L42.846,14.926z"/>
	<path fill="#4256E7" d="M57.896,15.551c1.125,0,2.6-0.426,3.299-1.15l1.949,1.924c-1.299,1.351-3.424,2-5.297,2
		c-4.25,0-6.773-2.624-6.773-6.573c0-3.749,2.549-6.448,6.547-6.448c4.125,0,6.699,2.549,6.225,7.623h-9.623
		C54.422,14.45,55.748,15.551,57.896,15.551z M57.723,8.002c-1.65,0-3,0.8-3.449,2.399h6.648
		C60.721,8.802,59.471,8.002,57.723,8.002z"/>
	<path fill="#4256E7" d="M69.248,7.102c0.949-1.524,2.225-1.75,3.475-1.75c1.273,0,2.498,0.5,3.174,1.175l-1.375,2.649
		c-0.625-0.525-1.199-0.8-2.199-0.8c-1.6,0-3.074,0.85-3.074,3.124V18h-3.049V5.678h2.824L69.248,7.102z"/>
	<path fill="#4256E7" d="M80.572,16.425c0,2.374-3.6,2.374-3.6,0S80.572,14.051,80.572,16.425z"/>
</g>
<g>
</g>
<g>
</g>
<g>
</g>
<g>
</g>
<g>
</g>
<g>
</g>
<g>
</g>
<g>
</g>
<g>
</g>
<g>
</g>
<g>
</g>
<g>
</g>
<g>
</g>
<g>
</g>
<g>
</g>
</svg>
