<?xml version="1.0" encoding="UTF-8" standalone="no"?>
<!-- Generator: Adobe Illustrator 16.0.0, SVG Export Plug-In . SVG Version: 6.00 Build 0)  -->

<svg
   xmlns:dc="http://purl.org/dc/elements/1.1/"
   xmlns:cc="http://creativecommons.org/ns#"
   xmlns:rdf="http://www.w3.org/1999/02/22-rdf-syntax-ns#"
   xmlns:svg="http://www.w3.org/2000/svg"
   xmlns="http://www.w3.org/2000/svg"
   xmlns:sodipodi="http://sodipodi.sourceforge.net/DTD/sodipodi-0.dtd"
   xmlns:inkscape="http://www.inkscape.org/namespaces/inkscape"
   version="1.1"
   id="Layer_1"
   inkscape:version="0.92.2 5c3e80d, 2017-08-06"
   sodipodi:docname="nf-tower-white.svg"
   x="0px"
   y="0px"
   width="230.59"
   height="34.91"
   viewBox="0 0 230.59 34.91"
   enable-background="new 0 0 220.59 34.91"
   xml:space="preserve"><metadata
     id="metadata941"><rdf:RDF><cc:Work
         rdf:about=""><dc:format>image/svg+xml</dc:format><dc:type
           rdf:resource="http://purl.org/dc/dcmitype/StillImage" /><dc:title></dc:title></cc:Work></rdf:RDF></metadata><defs
     id="defs939" /><sodipodi:namedview
     inkscape:cx="167.94004"
     inkscape:cy="15.538404"
     bordercolor="#666666"
     guidetolerance="10"
     pagecolor="#ffffff"
     borderopacity="1"
     showgrid="false"
     objecttolerance="10"
     inkscape:zoom="5.6568542"
     gridtolerance="10"
     id="namedview3889"
     inkscape:measure-end="0,0"
     inkscape:measure-start="0,0"
     inkscape:current-layer="Layer_1"
     inkscape:pageopacity="0"
     inkscape:window-maximized="0"
     inkscape:window-width="1221"
     inkscape:window-height="767"
     inkscape:window-x="0"
     inkscape:window-y="0"
     inkscape:pageshadow="2" /><g
     id="g3856"
     transform="translate(-1)"
     style="fill:#ffffff"><g
       id="g3854"
       style="fill:#ffffff"><path
         id="path3844"
         inkscape:connector-curvature="0"
         d="M 20.123,0 C 10.482,0 2.667,7.813 2.667,17.454 c 0,9.641 7.815,17.456 17.456,17.456 9.638,0 17.454,-7.816 17.454,-17.457 C 37.576,7.813 29.759,0 20.123,0 Z m 0.07,33.602 c -8.958,0 -16.22,-7.262 -16.22,-16.221 0,-8.957 7.262,-16.219 16.22,-16.219 8.958,0 16.22,7.262 16.22,16.219 0.001,8.959 -7.262,16.221 -16.22,16.221 z"
         style="fill:#ffffff" /><g
         id="g3852"
         style="fill:#ffffff"><circle
           id="circle3846"
           cx="21.683001"
           cy="14.865"
           r="0.58099997"
           style="fill:#ffffff" /><circle
           id="circle3848"
           cx="23.545"
           cy="16.239"
           r="0.57999998"
           style="fill:#ffffff" /><path
           id="path3850"
           inkscape:connector-curvature="0"
           d="M 29.78,7.783 C 29.755,7.777 29.73,7.777 29.704,7.774 29.649,7.752 29.59,7.738 29.528,7.738 H 23.112 C 23.118,7.696 23.123,7.654 23.123,7.609 V 6.232 c 0,-0.151 -0.042,-0.288 -0.11,-0.401 -0.064,-0.272 -0.37,-0.479 -0.741,-0.479 h -3.341 c -0.396,0 -0.719,0.238 -0.748,0.539 -0.07,0.112 -0.109,0.25 -0.109,0.4 v 1.375 c 0,0.025 0.002,0.047 0.005,0.072 H 11.4 c -0.092,0 -0.174,0.026 -0.25,0.071 -0.266,0.11 -0.414,0.427 -0.333,0.751 l 3.417,13.619 c 0.088,0.35 0.414,0.57 0.723,0.492 0.021,-0.006 0.038,-0.014 0.056,-0.02 0.059,0.01 0.122,0.016 0.185,0.016 h 2.463 v 11.41 h 1.162 v -11.41 h 3.394 v 11.461 h 1.162 v -11.46 h 2.586 c 0.02,0 0.039,-0.002 0.057,-0.002 0.006,0 0.011,0.004 0.017,0.006 0.313,0.078 0.635,-0.143 0.724,-0.492 L 30.182,8.561 C 30.271,8.21 30.091,7.86 29.78,7.783 Z m -14.515,13.723 -0.7,-2.793 c 0.104,0.02 0.218,0.031 0.334,0.031 l 11.532,-0.008 -0.694,2.77 z m -2.358,-9.391 c 0.201,0.056 0.439,0.09 0.694,0.09 l 3.281,-0.002 c -0.009,0.033 -0.012,0.065 -0.012,0.102 l 0.003,5.282 -1.976,0.002 c -0.218,0 -0.421,0.039 -0.59,0.101 z m 13.812,5.478 c -0.072,-0.008 -0.146,-0.012 -0.223,-0.012 l -4.279,0.003 c 0,-0.019 0.004,-0.034 0.004,-0.051 V 16.68 c 0,-0.38 -0.26,-0.688 -0.582,-0.688 -0.32,0 -0.58,0.308 -0.58,0.688 v 0.853 c 0,0.017 0.003,0.033 0.003,0.053 l -3.03,0.001 -0.004,-5.284 c 0,-0.034 -0.005,-0.068 -0.014,-0.101 l 3.139,-10e-4 v 0.815 c 0,0.379 0.26,0.689 0.58,0.689 0.322,0 0.582,-0.31 0.582,-0.689 V 12.2 l 0.848,-10e-4 c -0.067,0.129 -0.106,0.285 -0.106,0.453 v 1.573 c 0,0.434 0.26,0.787 0.582,0.787 0.321,0 0.581,-0.353 0.581,-0.787 V 12.65 c 0,-0.168 -0.039,-0.325 -0.106,-0.453 l 3.658,-0.002 c 0.106,0 0.207,-0.007 0.305,-0.017 z m 1.629,-6.489 c -0.174,-0.039 -0.369,-0.062 -0.577,-0.062 l -14.169,0.009 c -0.359,10e-4 -0.685,0.067 -0.917,0.174 L 12.102,8.899 H 28.9 Z M 19.235,7.667 V 6.515 h 2.726 v 1.094 c 0,0.045 0.004,0.087 0.011,0.129 H 19.23 C 19.231,7.712 19.235,7.69 19.235,7.667 Z"
           style="fill:#ffffff" /></g></g></g><g
     id="g3858"
     transform="translate(-1)" /><g
     id="g3860"
     transform="translate(-1)" /><g
     id="g3862"
     transform="translate(-1)" /><g
     id="g3864"
     transform="translate(-1)" /><g
     id="g3866"
     transform="translate(-1)" /><g
     id="g3868"
     transform="translate(-1)" /><g
     id="g3870"
     transform="translate(-1)" /><g
     id="g3872"
     transform="translate(-1)" /><g
     id="g3874"
     transform="translate(-1)" /><g
     id="g3876"
     transform="translate(-1)" /><g
     id="g3878"
     transform="translate(-1)" /><g
     id="g3880"
     transform="translate(-1)" /><g
     id="g3882"
     transform="translate(-1)" /><g
     id="g3884"
     transform="translate(-1)" /><g
     id="g3886"
     transform="translate(-1)" /><g
     id="g924"
     transform="matrix(1.0920011,0,0,1.0920011,-4.4474475,-0.242471)"
     style="fill:#ffffff"><path
       d="m 85.139,11.443 c 0.491,-0.016 0.768,0.014 0.933,0.03 h 6.445 V 14.1 h -3.026 c 0,0 -2.027,0.006 -3.074,0 -2.141,0.017 -4.146,0.39 -4.246,0.401 z"
       id="path898"
       inkscape:connector-curvature="0"
       style="fill:#ffffff" /><path
       d="m 76.641,17.011 c 0.184,0.238 0.184,0.248 0.369,0.508 3.334,4.688 7.934,4.23 8.129,4.207 v 2.634 c -0.051,0.007 -0.014,0.02 -0.463,0.02 -1.812,0 -6.387,-0.519 -9.813,-5.333 -0.095,-0.134 -0.095,-0.138 -0.188,-0.262 z"
       id="path900"
       inkscape:connector-curvature="0"
       style="fill:#ffffff" /><path
       d="m 74.582,18.657 c -3.223,-4.336 -5.827,-4.578 -5.827,-4.578 v -2.623 c 0.392,0.009 3.801,0.237 7.703,5.316 z"
       id="path902"
       inkscape:connector-curvature="0"
       style="fill:#ffffff" /><path
       d="M 43.45,24.208 V 12.63 c 1.875,-0.933 3.83,-1.4 5.863,-1.4 1.784,0 3.177,0.465 4.181,1.394 1.005,0.93 1.507,2.233 1.507,3.907 v 7.678 h -3.075 v -7.94 c 0,-0.341 -0.031,-0.626 -0.094,-0.855 -0.063,-0.229 -0.187,-0.469 -0.375,-0.72 -0.187,-0.248 -0.494,-0.438 -0.919,-0.562 -0.425,-0.125 -0.971,-0.189 -1.638,-0.189 -0.749,0 -1.542,0.076 -2.375,0.226 V 24.21 H 43.45 Z"
       id="path904"
       inkscape:connector-curvature="0"
       style="fill:#ffffff" /><path
       d="m 57,17.955 c 0,-2.05 0.457,-3.688 1.37,-4.913 0.912,-1.224 2.36,-1.838 4.344,-1.838 1.875,0 3.293,0.596 4.256,1.789 0.964,1.191 1.445,2.659 1.445,4.4 0,0.717 -0.018,1.247 -0.052,1.589 h -8.287 c 0.083,1.107 0.413,1.85 0.993,2.225 0.58,0.375 1.332,0.561 2.256,0.561 1.502,0 2.472,0.034 4.354,-0.504 l 0.014,2.606 c -0.98,0.46 -3.037,0.536 -4.829,0.536 -0.567,0 -1.099,-0.047 -1.6,-0.137 C 60.763,24.176 60.245,23.986 59.708,23.693 59.173,23.402 58.711,23.031 58.325,22.582 57.938,22.131 57.621,21.509 57.372,20.714 57.124,19.916 57,18.997 57,17.955 Z m 3.076,-1.099 h 5.149 c -0.082,-0.877 -0.342,-1.617 -0.779,-2.221 -0.438,-0.603 -1.041,-0.905 -1.808,-0.905 -0.767,0 -1.364,0.245 -1.794,0.738 -0.429,0.493 -0.685,1.288 -0.768,2.388 z"
       id="path906"
       inkscape:connector-curvature="0"
       style="fill:#ffffff" /><rect
       x="86.417"
       y="7.6420002"
       width="3.0739999"
       height="2.915"
       id="rect908"
       style="fill:#ffffff" /><path
       d="M 89.835,21.481 C 89.606,21.289 89.49,20.918 89.49,20.37 v -5.323 h -3.074 v 5.135 c 0,1.316 0.362,2.35 1.088,3.101 0.725,0.749 1.721,1.124 2.988,1.124 0.016,0 0.037,0 0.062,0 0.707,0 1.361,-0.124 1.962,-0.375 v -2.537 c -0.426,0.184 -0.913,0.273 -1.462,0.273 -0.583,0 -0.989,-0.095 -1.219,-0.287 z"
       id="path910"
       inkscape:connector-curvature="0"
       style="fill:#ffffff" /><path
       d="M 94.605,14.068 V 11.43 h 2.176 c 0.016,-3.559 1.604,-5.338 4.763,-5.338 0.408,0 0.824,0.042 1.25,0.127 v 2.447 c -0.309,-0.032 -0.537,-0.05 -0.688,-0.05 -0.801,0 -1.377,0.192 -1.726,0.576 -0.351,0.383 -0.524,1.129 -0.524,2.237 h 2.938 v 2.638 h -2.938 v 10.14 h -3.075 v -10.14 h -2.176 z"
       id="path912"
       inkscape:connector-curvature="0"
       style="fill:#ffffff" /><path
       d="M 105.306,24.208 V 6.567 h 3.075 v 17.641 z"
       id="path914"
       inkscape:connector-curvature="0"
       style="fill:#ffffff" /><path
       d="m 113.333,22.706 c -1.043,-1.132 -1.563,-2.758 -1.563,-4.875 0,-2.117 0.521,-3.742 1.563,-4.876 1.042,-1.133 2.535,-1.7 4.481,-1.7 1.946,0 3.439,0.567 4.481,1.7 1.042,1.134 1.562,2.759 1.562,4.876 0,2.117 -0.521,3.743 -1.562,4.875 -1.042,1.135 -2.535,1.7 -4.481,1.7 -1.946,0 -3.439,-0.565 -4.481,-1.7 z m 2.243,-8.087 c -0.486,0.558 -0.731,1.631 -0.731,3.218 0,1.588 0.245,2.659 0.731,3.212 0.488,0.555 1.234,0.833 2.244,0.833 1.009,0 1.753,-0.278 2.238,-0.833 0.482,-0.553 0.726,-1.624 0.726,-3.212 0,-1.587 -0.243,-2.66 -0.726,-3.218 -0.485,-0.559 -1.229,-0.839 -2.238,-0.839 -1.01,0 -1.756,0.28 -2.244,0.839 z"
       id="path916"
       inkscape:connector-curvature="0"
       style="fill:#ffffff" /><path
       d="m 125.571,11.43 h 3.252 l 2.712,9.213 2.438,-9.213 h 2.639 l 2.425,9.213 2.712,-9.213 h 3.25 l -4.525,12.778 h -3.075 l -2.101,-7.352 -2.123,7.352 h -3.077 z"
       id="path918"
       inkscape:connector-curvature="0"
       style="fill:#ffffff" /><path
       d="m 70.322,20.267 c -3.343,1.693 -6.14,1.484 -6.312,1.472 l -0.206,2.626 c 0.044,0.002 0.238,0.017 0.555,0.017 1.095,0 3.569,-0.127 6.497,-1.457 z"
       id="path920"
       inkscape:connector-curvature="0"
       style="fill:#ffffff" /><path
       d="m 86.072,11.473 c -0.21,-0.02 -0.712,-0.053 -1.423,0 h -0.011 l -0.003,10e-4 c -2.105,0.157 -6.029,1.059 -9.687,5.197 -1.681,1.902 -3.493,3.098 -5.149,3.845 -2.264,2.606 -5.995,3.849 -5.995,3.849 0.044,0.002 0.238,0.017 0.555,0.017 1.82,0 7.698,-0.458 12.565,-5.966 3.037,-3.439 4.311,-3.696 6.073,-4.123 0,0 1.623,-0.838 3.72,-1.479 2.98,-0.948 5.8,-1.34 5.8,-1.34 h -6.445 z"
       id="path922"
       inkscape:connector-curvature="0"
       style="fill:#ffffff" /></g><g
     id="g936"
     transform="matrix(1.0869565,0,0,1.0869565,-6.5706522,-0.22913006)"
     style="fill:#ffffff"><path
       d="m 155.107,20.482 c -0.061,0.291 -0.092,0.574 -0.092,0.851 0,1.15 0.613,1.725 1.84,1.725 0.736,0 1.388,-0.222 1.955,-0.667 l 0.346,0.852 c -0.66,0.537 -1.519,0.805 -2.576,0.805 -0.859,0 -1.529,-0.226 -2.013,-0.679 -0.483,-0.452 -0.725,-1.076 -0.725,-1.874 0,-0.322 0.03,-0.629 0.092,-0.92 l 1.541,-7.636 h -2.23 l 0.184,-0.989 h 2.231 l 0.528,-2.622 h 1.15 l -0.529,2.622 h 3.818 l -0.184,0.989 h -3.818 z"
       id="path926"
       inkscape:connector-curvature="0"
       style="fill:#ffffff" /><path
       d="m 162.985,22.69 c -0.959,-0.905 -1.438,-2.116 -1.438,-3.635 0,-1.364 0.295,-2.591 0.886,-3.68 0.59,-1.089 1.406,-1.947 2.449,-2.576 1.042,-0.628 2.223,-0.942 3.542,-0.942 1.625,0 2.917,0.448 3.875,1.345 0.958,0.897 1.438,2.113 1.438,3.646 0,1.365 -0.295,2.596 -0.885,3.692 -0.591,1.096 -1.407,1.954 -2.45,2.575 -1.043,0.621 -2.223,0.932 -3.542,0.932 -1.625,0 -2.917,-0.452 -3.875,-1.357 z m 6.853,-0.46 c 0.852,-0.521 1.521,-1.246 2.013,-2.174 0.49,-0.928 0.736,-1.974 0.736,-3.14 0,-1.272 -0.372,-2.262 -1.115,-2.967 -0.744,-0.705 -1.791,-1.059 -3.14,-1.059 -1.074,0 -2.036,0.265 -2.887,0.794 -0.852,0.529 -1.522,1.258 -2.013,2.185 -0.491,0.929 -0.736,1.967 -0.736,3.117 0,1.272 0.372,2.262 1.116,2.967 0.743,0.705 1.79,1.058 3.14,1.058 1.073,0.001 2.036,-0.259 2.886,-0.781 z"
       id="path928"
       inkscape:connector-curvature="0"
       style="fill:#ffffff" /><path
       d="m 195.311,11.949 -6.785,12.006 h -1.104 l -2.186,-10.442 -5.979,10.442 h -1.104 l -2.392,-12.006 h 1.058 l 2.094,10.718 6.095,-10.718 h 0.989 l 2.162,10.695 6.025,-10.695 z"
       id="path930"
       inkscape:connector-curvature="0"
       style="fill:#ffffff" /><path
       d="m 196.093,18.205 c -0.031,0.338 -0.046,0.591 -0.046,0.759 0,1.304 0.375,2.304 1.127,3.002 0.751,0.697 1.855,1.046 3.312,1.046 0.844,0 1.622,-0.142 2.335,-0.425 0.713,-0.284 1.307,-0.679 1.782,-1.185 l 0.529,0.805 c -0.537,0.583 -1.223,1.035 -2.059,1.357 -0.836,0.321 -1.729,0.482 -2.68,0.482 -1.702,0 -3.04,-0.444 -4.014,-1.334 -0.974,-0.889 -1.46,-2.123 -1.46,-3.703 0,-1.349 0.283,-2.567 0.851,-3.656 0.568,-1.089 1.35,-1.944 2.347,-2.564 0.996,-0.621 2.115,-0.932 3.357,-0.932 1.564,0 2.807,0.444 3.727,1.334 0.92,0.889 1.38,2.115 1.38,3.68 0,0.368 -0.046,0.812 -0.139,1.334 z m 1.99,-4.14 c -0.942,0.812 -1.561,1.894 -1.852,3.242 h 9.246 c 0.016,-0.138 0.023,-0.337 0.023,-0.598 0,-1.211 -0.368,-2.158 -1.104,-2.841 -0.735,-0.682 -1.717,-1.023 -2.943,-1.023 -1.304,10e-4 -2.427,0.408 -3.37,1.22 z"
       id="path932"
       inkscape:connector-curvature="0"
       style="fill:#ffffff" /><path
       d="m 213.929,12.513 c 0.836,-0.438 1.852,-0.655 3.048,-0.655 l -0.207,1.127 -0.368,-0.023 c -1.364,0 -2.483,0.406 -3.357,1.219 -0.874,0.813 -1.473,2.017 -1.794,3.611 l -1.242,6.164 h -1.15 l 2.393,-12.006 h 1.127 l -0.506,2.53 c 0.535,-0.875 1.221,-1.531 2.056,-1.967 z"
       id="path934"
       inkscape:connector-curvature="0"
       style="fill:#ffffff" /></g></svg>