<?xml version="1.0" encoding="utf-8"?>
<!-- Generator: Adobe Illustrator 16.0.0, SVG Export Plug-In . SVG Version: 6.00 Build 0)  -->
<!DOCTYPE svg PUBLIC "-//W3C//DTD SVG 1.1//EN" "http://www.w3.org/Graphics/SVG/1.1/DTD/svg11.dtd">
<svg version="1.1"
	 id="Layer_1" xmlns:cc="http://creativecommons.org/ns#" xmlns:rdf="http://www.w3.org/1999/02/22-rdf-syntax-ns#" xmlns:sodipodi="http://sodipodi.sourceforge.net/DTD/sodipodi-0.dtd" xmlns:svg="http://www.w3.org/2000/svg" xmlns:dc="http://purl.org/dc/elements/1.1/" xmlns:inkscape="http://www.inkscape.org/namespaces/inkscape" inkscape:version="0.92.2 5c3e80d, 2017-08-06" sodipodi:docname="brand-black.svg"
	 xmlns="http://www.w3.org/2000/svg" xmlns:xlink="http://www.w3.org/1999/xlink" x="0px" y="0px" width="220.59px"
	 height="34.91px" viewBox="0 0 220.59 34.91" enable-background="new 0 0 220.59 34.91" xml:space="preserve">
<sodipodi:namedview  inkscape:cx="94.061015" inkscape:cy="14.089001" bordercolor="#666666" guidetolerance="10" pagecolor="#ffffff" borderopacity="1" showgrid="false" objecttolerance="10" inkscape:zoom="2.8284271" gridtolerance="10" id="namedview3889" inkscape:measure-end="0,0" inkscape:measure-start="0,0" inkscape:current-layer="Layer_1" inkscape:pageopacity="0" inkscape:window-maximized="0" inkscape:window-width="1221" inkscape:window-height="767" inkscape:window-x="0" inkscape:window-y="0" inkscape:pageshadow="2">
	</sodipodi:namedview>
<g id="g3856" transform="translate(-1)">
	<g id="g3854">
		<path id="path3844" inkscape:connector-curvature="0" fill="#FFFFFF" d="M20.123,0C10.482,0,2.667,7.813,2.667,17.454
			S10.482,34.91,20.123,34.91c9.638,0,17.454-7.816,17.454-17.457C37.576,7.813,29.759,0,20.123,0z M20.193,33.602
			c-8.958,0-16.22-7.262-16.22-16.221c0-8.957,7.262-16.219,16.22-16.219s16.22,7.262,16.22,16.219
			C36.414,26.34,29.151,33.602,20.193,33.602z"/>
		<g id="g3852">
			<circle id="circle3846" fill="#FFFFFF" cx="21.683" cy="14.865" r="0.581"/>
			<circle id="circle3848" fill="#FFFFFF" cx="23.545" cy="16.239" r="0.58"/>
			<path id="path3850" inkscape:connector-curvature="0" fill="#FFFFFF" d="M29.78,7.783c-0.025-0.006-0.05-0.006-0.076-0.009
				c-0.055-0.022-0.114-0.036-0.176-0.036h-6.416c0.006-0.042,0.011-0.084,0.011-0.129V6.232c0-0.151-0.042-0.288-0.11-0.401
				c-0.064-0.272-0.37-0.479-0.741-0.479h-3.341c-0.396,0-0.719,0.238-0.748,0.539c-0.07,0.112-0.109,0.25-0.109,0.4v1.375
				c0,0.025,0.002,0.047,0.005,0.072H11.4c-0.092,0-0.174,0.026-0.25,0.071c-0.266,0.11-0.414,0.427-0.333,0.751l3.417,13.619
				c0.088,0.35,0.414,0.57,0.723,0.492c0.021-0.006,0.038-0.014,0.056-0.02c0.059,0.01,0.122,0.016,0.185,0.016h2.463v11.41h1.162
				v-11.41h3.394v11.461h1.162V22.668h2.586c0.02,0,0.039-0.002,0.057-0.002c0.006,0,0.011,0.004,0.017,0.006
				c0.313,0.078,0.635-0.143,0.724-0.492l3.419-13.619C30.271,8.21,30.091,7.86,29.78,7.783z M15.265,21.506l-0.7-2.793
				c0.104,0.02,0.218,0.031,0.334,0.031l11.532-0.008l-0.694,2.77H15.265z M12.907,12.115c0.201,0.056,0.439,0.09,0.694,0.09
				l3.281-0.002c-0.009,0.033-0.012,0.065-0.012,0.102l0.003,5.282l-1.976,0.002c-0.218,0-0.421,0.039-0.59,0.101L12.907,12.115z
				 M26.719,17.593c-0.072-0.008-0.146-0.012-0.223-0.012l-4.279,0.003c0-0.019,0.004-0.034,0.004-0.051v-0.853
				c0-0.38-0.26-0.688-0.582-0.688c-0.32,0-0.58,0.308-0.58,0.688v0.853c0,0.017,0.003,0.033,0.003,0.053l-3.03,0.001l-0.004-5.284
				c0-0.034-0.005-0.068-0.014-0.101l3.139-0.001v0.815c0,0.379,0.26,0.689,0.58,0.689c0.322,0,0.582-0.31,0.582-0.689V12.2
				l0.848-0.001c-0.067,0.129-0.106,0.285-0.106,0.453v1.573c0,0.434,0.26,0.787,0.582,0.787c0.321,0,0.581-0.353,0.581-0.787
				v-1.575c0-0.168-0.039-0.325-0.106-0.453l3.658-0.002c0.106,0,0.207-0.007,0.305-0.017L26.719,17.593z M28.348,11.104
				c-0.174-0.039-0.369-0.062-0.577-0.062l-14.169,0.009c-0.359,0.001-0.685,0.067-0.917,0.174l-0.583-2.326h16.798L28.348,11.104z
				 M19.235,7.667V6.515h2.726v1.094c0,0.045,0.004,0.087,0.011,0.129H19.23C19.231,7.712,19.235,7.69,19.235,7.667z"/>
		</g>
	</g>
</g>
<g id="g3858" transform="translate(-1)">
</g>
<g id="g3860" transform="translate(-1)">
</g>
<g id="g3862" transform="translate(-1)">
</g>
<g id="g3864" transform="translate(-1)">
</g>
<g id="g3866" transform="translate(-1)">
</g>
<g id="g3868" transform="translate(-1)">
</g>
<g id="g3870" transform="translate(-1)">
</g>
<g id="g3872" transform="translate(-1)">
</g>
<g id="g3874" transform="translate(-1)">
</g>
<g id="g3876" transform="translate(-1)">
</g>
<g id="g3878" transform="translate(-1)">
</g>
<g id="g3880" transform="translate(-1)">
</g>
<g id="g3882" transform="translate(-1)">
</g>
<g id="g3884" transform="translate(-1)">
</g>
<g id="g3886" transform="translate(-1)">
</g>
<g>
	<path fill="#FFFFFF" d="M85.139,11.443c0.491-0.016,0.768,0.014,0.933,0.03h6.445V14.1h-3.026c0,0-2.027,0.006-3.074,0
		c-2.141,0.017-4.146,0.39-4.246,0.401L85.139,11.443z"/>
	<path fill="#FFFFFF" d="M76.641,17.011c0.184,0.238,0.184,0.248,0.369,0.508c3.334,4.688,7.934,4.23,8.129,4.207v2.634
		c-0.051,0.007-0.014,0.02-0.463,0.02c-1.812,0-6.387-0.519-9.813-5.333c-0.095-0.134-0.095-0.138-0.188-0.262L76.641,17.011z"/>
	<path fill="#FFFFFF" d="M74.582,18.657c-3.223-4.336-5.827-4.578-5.827-4.578v-2.623c0.392,0.009,3.801,0.237,7.703,5.316
		L74.582,18.657z"/>
	<path fill="#FFFFFF" d="M43.45,24.208V12.63c1.875-0.933,3.83-1.4,5.863-1.4c1.784,0,3.177,0.465,4.181,1.394
		c1.005,0.93,1.507,2.233,1.507,3.907v7.678h-3.075v-7.94c0-0.341-0.031-0.626-0.094-0.855s-0.187-0.469-0.375-0.72
		c-0.187-0.248-0.494-0.438-0.919-0.562c-0.425-0.125-0.971-0.189-1.638-0.189c-0.749,0-1.542,0.076-2.375,0.226v10.041H43.45z"/>
	<path fill="#FFFFFF" d="M57,17.955c0-2.05,0.457-3.688,1.37-4.913c0.912-1.224,2.36-1.838,4.344-1.838
		c1.875,0,3.293,0.596,4.256,1.789c0.964,1.191,1.445,2.659,1.445,4.4c0,0.717-0.018,1.247-0.052,1.589h-8.287
		c0.083,1.107,0.413,1.85,0.993,2.225s1.332,0.561,2.256,0.561c1.502,0,2.472,0.034,4.354-0.504l0.014,2.606
		c-0.98,0.46-3.037,0.536-4.829,0.536c-0.567,0-1.099-0.047-1.6-0.137c-0.501-0.093-1.019-0.283-1.556-0.576
		c-0.535-0.291-0.997-0.662-1.383-1.111c-0.387-0.451-0.704-1.073-0.953-1.868C57.124,19.916,57,18.997,57,17.955z M60.076,16.856
		h5.149c-0.082-0.877-0.342-1.617-0.779-2.221c-0.438-0.603-1.041-0.905-1.808-0.905s-1.364,0.245-1.794,0.738
		C60.415,14.961,60.159,15.756,60.076,16.856z"/>
	<rect x="86.417" y="7.642" fill="#FFFFFF" width="3.074" height="2.915"/>
	<path fill="#FFFFFF" d="M89.835,21.481c-0.229-0.192-0.345-0.563-0.345-1.111v-5.323h-3.074v5.135c0,1.316,0.362,2.35,1.088,3.101
		c0.725,0.749,1.721,1.124,2.988,1.124c0.016,0,0.037,0,0.062,0c0.707,0,1.361-0.124,1.962-0.375v-2.537
		c-0.426,0.184-0.913,0.273-1.462,0.273C90.471,21.768,90.065,21.673,89.835,21.481z"/>
	<path fill="#FFFFFF" d="M94.605,14.068V11.43h2.176c0.016-3.559,1.604-5.338,4.763-5.338c0.408,0,0.824,0.042,1.25,0.127v2.447
		c-0.309-0.032-0.537-0.05-0.688-0.05c-0.801,0-1.377,0.192-1.726,0.576c-0.351,0.383-0.524,1.129-0.524,2.237h2.938v2.638h-2.938
		v10.14h-3.075v-10.14H94.605z"/>
	<path fill="#FFFFFF" d="M105.306,24.208V6.567h3.075v17.641H105.306z"/>
	<path fill="#FFFFFF" d="M113.333,22.706c-1.043-1.132-1.563-2.758-1.563-4.875s0.521-3.742,1.563-4.876
		c1.042-1.133,2.535-1.7,4.481-1.7s3.439,0.567,4.481,1.7c1.042,1.134,1.562,2.759,1.562,4.876s-0.521,3.743-1.562,4.875
		c-1.042,1.135-2.535,1.7-4.481,1.7S114.375,23.841,113.333,22.706z M115.576,14.619c-0.486,0.558-0.731,1.631-0.731,3.218
		c0,1.588,0.245,2.659,0.731,3.212c0.488,0.555,1.234,0.833,2.244,0.833c1.009,0,1.753-0.278,2.238-0.833
		c0.482-0.553,0.726-1.624,0.726-3.212c0-1.587-0.243-2.66-0.726-3.218c-0.485-0.559-1.229-0.839-2.238-0.839
		C116.81,13.78,116.064,14.06,115.576,14.619z"/>
	<path fill="#FFFFFF" d="M125.571,11.43h3.252l2.712,9.213l2.438-9.213h2.639l2.425,9.213l2.712-9.213h3.25l-4.525,12.778h-3.075
		l-2.101-7.352l-2.123,7.352h-3.077L125.571,11.43z"/>
	<path fill="#FFFFFF" d="M70.322,20.267c-3.343,1.693-6.14,1.484-6.312,1.472l-0.206,2.626c0.044,0.002,0.238,0.017,0.555,0.017
		c1.095,0,3.569-0.127,6.497-1.457L70.322,20.267z"/>
	<path fill="#FFFFFF" d="M86.072,11.473c-0.21-0.02-0.712-0.053-1.423,0h-0.011l-0.003,0.001c-2.105,0.157-6.029,1.059-9.687,5.197
		c-1.681,1.902-3.493,3.098-5.149,3.845c-2.264,2.606-5.995,3.849-5.995,3.849c0.044,0.002,0.238,0.017,0.555,0.017
		c1.82,0,7.698-0.458,12.565-5.966c3.037-3.439,4.311-3.696,6.073-4.123c0,0,1.623-0.838,3.72-1.479c2.98-0.948,5.8-1.34,5.8-1.34
		H86.072z"/>
</g>
<g>
	<path fill="#FFFFFF" d="M155.107,20.482c-0.061,0.291-0.092,0.574-0.092,0.851c0,1.15,0.613,1.725,1.84,1.725
		c0.736,0,1.388-0.222,1.955-0.667l0.346,0.852c-0.66,0.537-1.519,0.805-2.576,0.805c-0.859,0-1.529-0.226-2.013-0.679
		c-0.483-0.452-0.725-1.076-0.725-1.874c0-0.322,0.03-0.629,0.092-0.92l1.541-7.636h-2.23l0.184-0.989h2.231l0.528-2.622h1.15
		l-0.529,2.622h3.818l-0.184,0.989h-3.818L155.107,20.482z"/>
	<path fill="#FFFFFF" d="M162.985,22.69c-0.959-0.905-1.438-2.116-1.438-3.635c0-1.364,0.295-2.591,0.886-3.68
		c0.59-1.089,1.406-1.947,2.449-2.576c1.042-0.628,2.223-0.942,3.542-0.942c1.625,0,2.917,0.448,3.875,1.345
		c0.958,0.897,1.438,2.113,1.438,3.646c0,1.365-0.295,2.596-0.885,3.692c-0.591,1.096-1.407,1.954-2.45,2.575
		s-2.223,0.932-3.542,0.932C165.235,24.047,163.943,23.595,162.985,22.69z M169.838,22.23c0.852-0.521,1.521-1.246,2.013-2.174
		c0.49-0.928,0.736-1.974,0.736-3.14c0-1.272-0.372-2.262-1.115-2.967c-0.744-0.705-1.791-1.059-3.14-1.059
		c-1.074,0-2.036,0.265-2.887,0.794c-0.852,0.529-1.522,1.258-2.013,2.185c-0.491,0.929-0.736,1.967-0.736,3.117
		c0,1.272,0.372,2.262,1.116,2.967c0.743,0.705,1.79,1.058,3.14,1.058C168.025,23.012,168.988,22.752,169.838,22.23z"/>
	<path fill="#FFFFFF" d="M195.311,11.949l-6.785,12.006h-1.104l-2.186-10.442l-5.979,10.442h-1.104l-2.392-12.006h1.058
		l2.094,10.718l6.095-10.718h0.989l2.162,10.695l6.025-10.695H195.311z"/>
	<path fill="#FFFFFF" d="M196.093,18.205c-0.031,0.338-0.046,0.591-0.046,0.759c0,1.304,0.375,2.304,1.127,3.002
		c0.751,0.697,1.855,1.046,3.312,1.046c0.844,0,1.622-0.142,2.335-0.425c0.713-0.284,1.307-0.679,1.782-1.185l0.529,0.805
		c-0.537,0.583-1.223,1.035-2.059,1.357c-0.836,0.321-1.729,0.482-2.68,0.482c-1.702,0-3.04-0.444-4.014-1.334
		c-0.974-0.889-1.46-2.123-1.46-3.703c0-1.349,0.283-2.567,0.851-3.656s1.35-1.944,2.347-2.564c0.996-0.621,2.115-0.932,3.357-0.932
		c1.564,0,2.807,0.444,3.727,1.334c0.92,0.889,1.38,2.115,1.38,3.68c0,0.368-0.046,0.812-0.139,1.334H196.093z M198.083,14.065
		c-0.942,0.812-1.561,1.894-1.852,3.242h9.246c0.016-0.138,0.023-0.337,0.023-0.598c0-1.211-0.368-2.158-1.104-2.841
		c-0.735-0.682-1.717-1.023-2.943-1.023C200.149,12.846,199.026,13.253,198.083,14.065z"/>
	<path fill="#FFFFFF" d="M213.929,12.513c0.836-0.438,1.852-0.655,3.048-0.655l-0.207,1.127l-0.368-0.023
		c-1.364,0-2.483,0.406-3.357,1.219c-0.874,0.813-1.473,2.017-1.794,3.611l-1.242,6.164h-1.15l2.393-12.006h1.127l-0.506,2.53
		C212.408,13.605,213.094,12.949,213.929,12.513z"/>
</g>
</svg>
