<?xml version="1.0" encoding="UTF-8" standalone="no"?>
<!-- Generator: Adobe Illustrator 16.0.0, SVG Export Plug-In . SVG Version: 6.00 Build 0)  -->

<svg
   xmlns:dc="http://purl.org/dc/elements/1.1/"
   xmlns:cc="http://creativecommons.org/ns#"
   xmlns:rdf="http://www.w3.org/1999/02/22-rdf-syntax-ns#"
   xmlns:svg="http://www.w3.org/2000/svg"
   xmlns="http://www.w3.org/2000/svg"
   xmlns:sodipodi="http://sodipodi.sourceforge.net/DTD/sodipodi-0.dtd"
   xmlns:inkscape="http://www.inkscape.org/namespaces/inkscape"
   version="1.1"
   id="Layer_1"
   x="0px"
   y="0px"
   width="220.591"
   height="34.91"
   viewBox="0 0 220.591 34.91"
   enable-background="new 0 0 300 36"
   xml:space="preserve"
   sodipodi:docname="brand-short.svg"
   inkscape:version="0.92.2 5c3e80d, 2017-08-06"><metadata
     id="metadata3893"><rdf:RDF><cc:Work
         rdf:about=""><dc:format>image/svg+xml</dc:format><dc:type
           rdf:resource="http://purl.org/dc/dcmitype/StillImage" /><dc:title></dc:title></cc:Work></rdf:RDF></metadata><defs
     id="defs3891" /><sodipodi:namedview
     pagecolor="#ffffff"
     bordercolor="#666666"
     borderopacity="1"
     objecttolerance="10"
     gridtolerance="10"
     guidetolerance="10"
     inkscape:pageopacity="0"
     inkscape:pageshadow="2"
     inkscape:window-width="1221"
     inkscape:window-height="767"
     id="namedview3889"
     showgrid="false"
     inkscape:zoom="2.8284271"
     inkscape:cx="157.6454"
     inkscape:cy="14.089001"
     inkscape:window-x="0"
     inkscape:window-y="0"
     inkscape:window-maximized="0"
     inkscape:current-layer="Layer_1"
     inkscape:measure-start="0,0"
     inkscape:measure-end="0,0" /><g
     id="g3842"
     transform="translate(-1)"><path
       d="M 57.479,9.328 V 26.127 H 55.59 L 45.913,13.6 V 26.127 H 43.609 V 9.328 h 1.889 l 9.677,12.528 V 9.328 Z"
       id="path3816"
       inkscape:connector-curvature="0"
       style="fill:#4256e7" /><path
       d="m 73.031,20.535 h -9.907 c 0.138,1.121 0.61,2.02 1.417,2.701 0.806,0.68 1.809,1.02 3.006,1.02 1.459,0 2.634,-0.512 3.525,-1.537 l 1.221,1.488 c -0.553,0.672 -1.241,1.186 -2.062,1.537 -0.822,0.352 -1.74,0.527 -2.753,0.527 -1.291,0 -2.435,-0.275 -3.433,-0.828 -0.998,-0.553 -1.771,-1.324 -2.315,-2.316 -0.545,-0.992 -0.818,-2.111 -0.818,-3.359 0,-1.232 0.265,-2.344 0.795,-3.336 0.53,-0.992 1.259,-1.764 2.188,-2.316 0.929,-0.552 1.978,-0.828 3.145,-0.828 1.167,0 2.208,0.276 3.122,0.828 0.914,0.552 1.628,1.324 2.143,2.316 0.515,0.992 0.772,2.127 0.772,3.408 0,0.176 -0.016,0.408 -0.046,0.695 z m -8.652,-4.296 c -0.714,0.672 -1.133,1.552 -1.255,2.64 h 7.833 c -0.123,-1.071 -0.542,-1.947 -1.256,-2.628 -0.714,-0.68 -1.601,-1.02 -2.661,-1.02 -1.06,0 -1.947,0.336 -2.661,1.008 z"
       id="path3818"
       inkscape:connector-curvature="0"
       style="fill:#4256e7" /><path
       d="m 83.629,26.127 -3.525,-4.871 -3.571,4.871 h -2.465 l 4.815,-6.504 -4.585,-6.216 h 2.465 l 3.364,4.584 3.341,-4.584 h 2.419 l -4.608,6.216 4.861,6.504 z"
       id="path3820"
       inkscape:connector-curvature="0"
       style="fill:#4256e7" /><path
       d="m 95.471,25.383 c -0.322,0.289 -0.722,0.508 -1.198,0.66 -0.477,0.152 -0.968,0.229 -1.475,0.229 -1.229,0 -2.181,-0.344 -2.857,-1.031 -0.676,-0.689 -1.014,-1.672 -1.014,-2.953 v -6.984 h -2.074 v -1.896 h 2.074 v -2.784 h 2.211 v 2.784 h 3.502 v 1.896 h -3.5 v 6.888 c 0,0.688 0.165,1.217 0.496,1.584 0.33,0.369 0.802,0.553 1.417,0.553 0.676,0 1.251,-0.201 1.728,-0.602 z"
       id="path3822"
       inkscape:connector-curvature="0"
       style="fill:#4256e7" /><path
       d="m 100.379,12.303 v 1.104 h 3.548 v 1.896 h -3.502 V 26.127 H 98.214 V 15.303 H 96.14 v -1.896 h 2.074 v -1.128 c 0,-1.264 0.353,-2.264 1.06,-3 0.707,-0.736 1.697,-1.104 2.972,-1.104 0.491,0 0.952,0.064 1.382,0.192 0.43,0.128 0.798,0.312 1.106,0.552 l -0.668,1.752 c -0.507,-0.4 -1.076,-0.6 -1.705,-0.6 -1.322,0 -1.982,0.744 -1.982,2.232 z m 5.645,-3.984 h 2.211 v 17.808 h -2.211 z"
       id="path3824"
       inkscape:connector-curvature="0"
       style="fill:#4256e7" /><path
       d="m 114.456,25.432 c -0.968,-0.561 -1.724,-1.332 -2.269,-2.316 -0.545,-0.984 -0.818,-2.1 -0.818,-3.348 0,-1.249 0.272,-2.364 0.818,-3.348 0.545,-0.984 1.301,-1.752 2.269,-2.304 0.968,-0.552 2.059,-0.828 3.272,-0.828 1.213,0 2.3,0.276 3.26,0.828 0.96,0.552 1.713,1.32 2.258,2.304 0.545,0.984 0.818,2.1 0.818,3.348 0,1.248 -0.273,2.363 -0.818,3.348 -0.545,0.985 -1.298,1.756 -2.258,2.316 -0.96,0.56 -2.047,0.84 -3.26,0.84 -1.214,-10e-4 -2.305,-0.28 -3.272,-0.84 z m 5.379,-1.741 c 0.622,-0.375 1.109,-0.904 1.463,-1.584 0.354,-0.68 0.53,-1.459 0.53,-2.34 0,-0.88 -0.177,-1.66 -0.53,-2.34 -0.354,-0.68 -0.841,-1.204 -1.463,-1.572 -0.622,-0.368 -1.324,-0.552 -2.107,-0.552 -0.784,0 -1.486,0.185 -2.108,0.552 -0.622,0.368 -1.114,0.892 -1.475,1.572 -0.361,0.681 -0.542,1.46 -0.542,2.34 0,0.881 0.181,1.66 0.542,2.34 0.36,0.68 0.853,1.209 1.475,1.584 0.622,0.377 1.324,0.564 2.108,0.564 0.783,0.001 1.485,-0.187 2.107,-0.564 z"
       id="path3826"
       inkscape:connector-curvature="0"
       style="fill:#4256e7" /><path
       d="m 145.307,13.407 -4.562,12.72 h -2.119 l -3.525,-9.647 -3.571,9.647 h -2.12 l -4.538,-12.72 h 2.097 l 3.548,10.128 3.687,-10.128 h 1.866 l 3.617,10.177 3.641,-10.177 z"
       id="path3828"
       inkscape:connector-curvature="0"
       style="fill:#4256e7" /><path
       d="m 157.355,11.416 h -5.53 V 9.328 h 13.341 v 2.088 h -5.53 v 14.711 h -2.28 V 11.416 Z"
       id="path3830"
       inkscape:connector-curvature="0"
       style="fill:#4256e7" /><path
       d="m 168.092,25.432 c -0.968,-0.561 -1.724,-1.332 -2.27,-2.316 -0.545,-0.984 -0.817,-2.1 -0.817,-3.348 0,-1.249 0.272,-2.364 0.817,-3.348 0.546,-0.984 1.302,-1.752 2.27,-2.304 0.968,-0.552 2.059,-0.828 3.272,-0.828 1.213,0 2.3,0.276 3.26,0.828 0.96,0.552 1.713,1.32 2.258,2.304 0.545,0.984 0.818,2.1 0.818,3.348 0,1.248 -0.273,2.363 -0.818,3.348 -0.545,0.985 -1.298,1.756 -2.258,2.316 -0.96,0.56 -2.047,0.84 -3.26,0.84 -1.214,-10e-4 -2.304,-0.28 -3.272,-0.84 z m 5.38,-1.741 c 0.622,-0.375 1.109,-0.904 1.463,-1.584 0.354,-0.68 0.53,-1.459 0.53,-2.34 0,-0.88 -0.177,-1.66 -0.53,-2.34 -0.354,-0.68 -0.841,-1.204 -1.463,-1.572 -0.622,-0.368 -1.324,-0.552 -2.107,-0.552 -0.784,0 -1.486,0.185 -2.108,0.552 -0.622,0.368 -1.114,0.892 -1.475,1.572 -0.361,0.681 -0.542,1.46 -0.542,2.34 0,0.881 0.181,1.66 0.542,2.34 0.36,0.68 0.853,1.209 1.475,1.584 0.622,0.377 1.324,0.564 2.108,0.564 0.782,0.001 1.485,-0.187 2.107,-0.564 z"
       id="path3832"
       inkscape:connector-curvature="0"
       style="fill:#4256e7" /><path
       d="m 198.943,13.407 -4.562,12.72 h -2.119 l -3.525,-9.647 -3.571,9.647 h -2.12 l -4.538,-12.72 h 2.097 l 3.548,10.128 3.687,-10.128 h 1.866 l 3.617,10.177 3.641,-10.177 z"
       id="path3834"
       inkscape:connector-curvature="0"
       style="fill:#4256e7" /><path
       d="m 211.868,20.535 h -9.907 c 0.138,1.121 0.61,2.02 1.417,2.701 0.807,0.68 1.809,1.02 3.007,1.02 1.459,0 2.634,-0.512 3.524,-1.537 l 1.222,1.488 c -0.553,0.672 -1.241,1.186 -2.062,1.537 -0.821,0.351 -1.739,0.527 -2.753,0.527 -1.29,0 -2.435,-0.275 -3.433,-0.828 -0.999,-0.553 -1.771,-1.324 -2.316,-2.316 -0.545,-0.992 -0.817,-2.111 -0.817,-3.359 0,-1.232 0.265,-2.344 0.795,-3.336 0.529,-0.992 1.259,-1.764 2.188,-2.316 0.93,-0.552 1.978,-0.828 3.146,-0.828 1.167,0 2.208,0.276 3.121,0.828 0.914,0.552 1.628,1.324 2.144,2.316 0.514,0.992 0.771,2.127 0.771,3.408 -0.001,0.176 -0.017,0.408 -0.047,0.695 z m -8.651,-4.296 c -0.715,0.672 -1.133,1.552 -1.256,2.64 h 7.833 c -0.123,-1.071 -0.541,-1.947 -1.255,-2.628 -0.715,-0.68 -1.602,-1.02 -2.661,-1.02 -1.061,0 -1.947,0.336 -2.661,1.008 z"
       id="path3836"
       inkscape:connector-curvature="0"
       style="fill:#4256e7" /><path
       d="m 218.849,13.863 c 0.753,-0.384 1.667,-0.576 2.742,-0.576 v 2.232 c -0.123,-0.016 -0.292,-0.024 -0.507,-0.024 -1.198,0 -2.14,0.372 -2.822,1.116 -0.684,0.744 -1.025,1.804 -1.025,3.18 v 6.336 h -2.212 v -12.72 h 2.12 v 2.136 c 0.382,-0.735 0.952,-1.295 1.704,-1.68 z"
       id="path3838"
       inkscape:connector-curvature="0"
       style="fill:#4256e7" /></g><g
     id="g3856"
     transform="translate(-1)"><g
       id="g3854"><path
         d="M 18.456,0 C 8.816,0 1,7.814 1,17.454 1,27.094 8.816,34.91 18.456,34.91 28.094,34.91 35.91,27.095 35.91,17.454 35.909,7.814 28.093,0 18.456,0 Z m 0.071,33.601 c -8.958,0 -16.22,-7.261 -16.22,-16.22 0,-8.957 7.262,-16.219 16.22,-16.219 8.958,0 16.22,7.262 16.22,16.219 0,8.959 -7.262,16.22 -16.22,16.22 z"
         id="path3844"
         inkscape:connector-curvature="0"
         style="fill:#4256e7" /><g
         id="g3852"><circle
           cx="19.454"
           cy="14.865"
           r="0.58099997"
           id="circle3846"
           style="fill:#4256e7" /><circle
           cx="21.316999"
           cy="16.239"
           r="0.57999998"
           id="circle3848"
           style="fill:#4256e7" /><path
           d="M 27.552,7.783 C 27.527,7.777 27.502,7.777 27.476,7.774 27.421,7.752 27.362,7.738 27.3,7.738 H 20.884 C 20.89,7.696 20.895,7.654 20.895,7.609 V 6.233 c 0,-0.151 -0.042,-0.288 -0.11,-0.401 C 20.721,5.56 20.415,5.353 20.044,5.353 h -3.341 c -0.396,0 -0.719,0.238 -0.748,0.539 -0.07,0.112 -0.109,0.25 -0.109,0.4 v 1.375 c 0,0.025 0.002,0.047 0.005,0.072 H 9.172 C 9.08,7.739 8.998,7.765 8.922,7.81 8.656,7.92 8.508,8.237 8.589,8.561 l 3.417,13.619 c 0.088,0.35 0.414,0.57 0.723,0.493 0.021,-0.007 0.038,-0.015 0.056,-0.021 0.059,0.01 0.122,0.016 0.185,0.016 h 2.463 v 11.41 h 1.162 v -11.41 h 3.394 V 34.13 h 1.162 V 22.668 h 2.586 c 0.02,0 0.039,-0.002 0.057,-0.002 0.006,0 0.011,0.005 0.017,0.007 0.313,0.077 0.635,-0.144 0.724,-0.493 L 27.954,8.561 c 0.089,-0.35 -0.091,-0.7 -0.402,-0.778 z m -14.516,13.723 -0.7,-2.792 c 0.104,0.019 0.218,0.03 0.334,0.03 l 11.532,-0.008 -0.694,2.77 z m -2.358,-9.391 c 0.201,0.056 0.439,0.09 0.694,0.09 l 3.281,-0.002 c -0.009,0.033 -0.012,0.065 -0.012,0.102 l 0.003,5.282 -1.976,0.002 c -0.218,0 -0.421,0.039 -0.59,0.101 z m 13.812,5.479 c -0.072,-0.008 -0.146,-0.012 -0.223,-0.012 l -4.279,0.003 c 0,-0.019 0.004,-0.034 0.004,-0.051 v -0.853 c 0,-0.38 -0.26,-0.688 -0.582,-0.688 -0.32,0 -0.58,0.308 -0.58,0.688 v 0.853 c 0,0.017 0.003,0.033 0.003,0.053 l -3.03,0.001 -0.004,-5.284 c 0,-0.034 -0.005,-0.068 -0.014,-0.101 l 3.139,-10e-4 v 0.815 c 0,0.379 0.26,0.689 0.58,0.689 0.322,0 0.582,-0.31 0.582,-0.689 V 12.2 l 0.848,-10e-4 c -0.067,0.129 -0.106,0.285 -0.106,0.453 v 1.573 c 0,0.434 0.26,0.787 0.582,0.787 0.321,0 0.581,-0.353 0.581,-0.787 V 12.65 c 0,-0.168 -0.039,-0.325 -0.106,-0.453 l 3.658,-0.002 c 0.106,0 0.207,-0.007 0.305,-0.017 z m 1.629,-6.489 C 25.945,11.066 25.75,11.043 25.542,11.043 l -14.169,0.009 c -0.359,0.001 -0.685,0.067 -0.917,0.174 L 9.873,8.9 H 26.671 Z M 17.007,7.667 V 6.515 h 2.726 v 1.094 c 0,0.045 0.004,0.087 0.011,0.129 h -2.742 c 0.001,-0.025 0.005,-0.047 0.005,-0.071 z"
           id="path3850"
           inkscape:connector-curvature="0"
           style="fill:#4256e7" /></g></g></g><g
     id="g3858"
     transform="translate(-1)" /><g
     id="g3860"
     transform="translate(-1)" /><g
     id="g3862"
     transform="translate(-1)" /><g
     id="g3864"
     transform="translate(-1)" /><g
     id="g3866"
     transform="translate(-1)" /><g
     id="g3868"
     transform="translate(-1)" /><g
     id="g3870"
     transform="translate(-1)" /><g
     id="g3872"
     transform="translate(-1)" /><g
     id="g3874"
     transform="translate(-1)" /><g
     id="g3876"
     transform="translate(-1)" /><g
     id="g3878"
     transform="translate(-1)" /><g
     id="g3880"
     transform="translate(-1)" /><g
     id="g3882"
     transform="translate(-1)" /><g
     id="g3884"
     transform="translate(-1)" /><g
     id="g3886"
     transform="translate(-1)" /></svg>