<?xml version="1.0" encoding="utf-8"?>
<!-- Generator: Adobe Illustrator 21.1.0, SVG Export Plug-In . SVG Version: 6.00 Build 0)  -->
<svg version="1.1"
	 id="Layer_1" inkscape:version="0.92.2 5c3e80d, 2017-08-06" sodipodi:docname="nf-tower-black.svg" xmlns:cc="http://creativecommons.org/ns#" xmlns:dc="http://purl.org/dc/elements/1.1/" xmlns:inkscape="http://www.inkscape.org/namespaces/inkscape" xmlns:rdf="http://www.w3.org/1999/02/22-rdf-syntax-ns#" xmlns:sodipodi="http://sodipodi.sourceforge.net/DTD/sodipodi-0.dtd" xmlns:svg="http://www.w3.org/2000/svg"
	 xmlns="http://www.w3.org/2000/svg" xmlns:xlink="http://www.w3.org/1999/xlink" x="0px" y="0px" viewBox="0 0 144.3 34.9"
	 style="enable-background:new 0 0 144.3 34.9;" xml:space="preserve">
<style type="text/css">
	.st0{fill:#001A1A;}
	.st1{fill:#231F20;}
</style>
<sodipodi:namedview  bordercolor="#666666" borderopacity="1" gridtolerance="10" guidetolerance="10" id="namedview3889" inkscape:current-layer="Layer_1" inkscape:cx="51.634609" inkscape:cy="14.089001" inkscape:measure-end="0,0" inkscape:measure-start="0,0" inkscape:pageopacity="0" inkscape:pageshadow="2" inkscape:window-height="767" inkscape:window-maximized="0" inkscape:window-width="1221" inkscape:window-x="0" inkscape:window-y="0" inkscape:zoom="2.8284271" objecttolerance="10" pagecolor="#ffffff" showgrid="false">
	</sodipodi:namedview>
<g id="g3856" transform="translate(-1)">
	<g id="g3854">
		<path id="path3844" inkscape:connector-curvature="0" class="st0" d="M20.1,0C10.5,0,2.7,7.8,2.7,17.5s7.8,17.5,17.5,17.5
			c9.6,0,17.5-7.8,17.5-17.5C37.6,7.8,29.8,0,20.1,0z M20.2,33.6c-9,0-16.2-7.3-16.2-16.2c0-9,7.3-16.2,16.2-16.2
			s16.2,7.3,16.2,16.2C36.4,26.3,29.2,33.6,20.2,33.6z"/>
		<g id="g3852">
			<circle id="circle3846" class="st0" cx="21.7" cy="14.9" r="0.6"/>
			<circle id="circle3848" class="st0" cx="23.5" cy="16.2" r="0.6"/>
			<path id="path3850" inkscape:connector-curvature="0" class="st0" d="M29.8,7.8C29.8,7.8,29.7,7.8,29.8,7.8c-0.1,0-0.2,0-0.3,0
				h-6.4c0,0,0-0.1,0-0.1V6.2c0-0.2,0-0.3-0.1-0.4c-0.1-0.3-0.4-0.5-0.7-0.5h-3.3c-0.4,0-0.7,0.2-0.7,0.5c-0.1,0.1-0.1,0.2-0.1,0.4
				v1.4c0,0,0,0,0,0.1h-6.7c-0.1,0-0.2,0-0.2,0.1c-0.3,0.1-0.4,0.4-0.3,0.8l3.4,13.6c0.1,0.4,0.4,0.6,0.7,0.5c0,0,0,0,0.1,0
				c0.1,0,0.1,0,0.2,0h2.5v11.4h1.2V22.7h3.4v11.5h1.2V22.7H26c0,0,0,0,0.1,0c0,0,0,0,0,0c0.3,0.1,0.6-0.1,0.7-0.5l3.4-13.6
				C30.3,8.2,30.1,7.9,29.8,7.8z M15.3,21.5l-0.7-2.8c0.1,0,0.2,0,0.3,0l11.5,0l-0.7,2.8L15.3,21.5z M12.9,12.1
				c0.2,0.1,0.4,0.1,0.7,0.1l3.3,0c0,0,0,0.1,0,0.1l0,5.3l-2,0c-0.2,0-0.4,0-0.6,0.1L12.9,12.1z M26.7,17.6c-0.1,0-0.1,0-0.2,0
				l-4.3,0c0,0,0,0,0-0.1v-0.9c0-0.4-0.3-0.7-0.6-0.7c-0.3,0-0.6,0.3-0.6,0.7v0.9c0,0,0,0,0,0.1l-3,0l0-5.3c0,0,0-0.1,0-0.1l3.1,0
				V13c0,0.4,0.3,0.7,0.6,0.7c0.3,0,0.6-0.3,0.6-0.7v-0.8l0.8,0c-0.1,0.1-0.1,0.3-0.1,0.5v1.6c0,0.4,0.3,0.8,0.6,0.8
				c0.3,0,0.6-0.4,0.6-0.8v-1.6c0-0.2,0-0.3-0.1-0.5l3.7,0c0.1,0,0.2,0,0.3,0L26.7,17.6z M28.3,11.1c-0.2,0-0.4-0.1-0.6-0.1l-14.2,0
				c-0.4,0-0.7,0.1-0.9,0.2l-0.6-2.3h16.8L28.3,11.1z M19.2,7.7V6.5H22v1.1c0,0,0,0.1,0,0.1L19.2,7.7C19.2,7.7,19.2,7.7,19.2,7.7z"
				/>
		</g>
	</g>
</g>
<g id="g3858" transform="translate(-1)">
</g>
<g id="g3860" transform="translate(-1)">
</g>
<g id="g3862" transform="translate(-1)">
</g>
<g id="g3864" transform="translate(-1)">
</g>
<g id="g3866" transform="translate(-1)">
</g>
<g id="g3868" transform="translate(-1)">
</g>
<g id="g3870" transform="translate(-1)">
</g>
<g id="g3872" transform="translate(-1)">
</g>
<g id="g3874" transform="translate(-1)">
</g>
<g id="g3876" transform="translate(-1)">
</g>
<g id="g3878" transform="translate(-1)">
</g>
<g id="g3880" transform="translate(-1)">
</g>
<g id="g3882" transform="translate(-1)">
</g>
<g id="g3884" transform="translate(-1)">
</g>
<g id="g3886" transform="translate(-1)">
</g>
<g id="g924" transform="matrix(1.0920011,0,0,1.0920011,-4.4474475,-0.242471)">
	<path id="path904" inkscape:connector-curvature="0" class="st1" d="M43.5,24.2V12.6c1.9-0.9,3.8-1.4,5.9-1.4
		c1.8,0,3.2,0.5,4.2,1.4c1,0.9,1.5,2.2,1.5,3.9v7.7h-3.1v-7.9c0-0.3,0-0.6-0.1-0.9c-0.1-0.2-0.2-0.5-0.4-0.7
		c-0.2-0.2-0.5-0.4-0.9-0.6c-0.4-0.1-1-0.2-1.6-0.2c-0.7,0-1.5,0.1-2.4,0.2v10L43.5,24.2L43.5,24.2z"/>
	<path id="path912" inkscape:connector-curvature="0" class="st1" d="M56.4,14.1v-2.6h2.2c0-3.6,1.6-5.3,4.8-5.3
		c0.4,0,0.8,0,1.3,0.1v2.4c-0.3,0-0.5-0.1-0.7-0.1c-0.8,0-1.4,0.2-1.7,0.6c-0.4,0.4-0.5,1.1-0.5,2.2h2.9v2.6h-2.9v10.1h-3.1V14.1
		L56.4,14.1L56.4,14.1z"/>
</g>
<g id="g936" transform="matrix(1.0869565,0,0,1.0869565,-6.5706522,-0.22913006)">
	<path id="path926" inkscape:connector-curvature="0" d="M77.1,20.5C77,20.8,77,21.1,77,21.3c0,1.1,0.6,1.7,1.8,1.7
		c0.7,0,1.4-0.2,2-0.7l0.3,0.9c-0.7,0.5-1.5,0.8-2.6,0.8c-0.9,0-1.5-0.2-2-0.7c-0.5-0.5-0.7-1.1-0.7-1.9c0-0.3,0-0.6,0.1-0.9
		l1.5-7.6h-2.2l0.2-1h2.2l0.5-2.6h1.1l-0.5,2.6h3.8l-0.2,1h-3.8L77.1,20.5z"/>
	<path id="path928" inkscape:connector-curvature="0" d="M85,22.7c-1-0.9-1.4-2.1-1.4-3.6c0-1.4,0.3-2.6,0.9-3.7
		c0.6-1.1,1.4-1.9,2.4-2.6c1-0.6,2.2-0.9,3.5-0.9c1.6,0,2.9,0.4,3.9,1.3c1,0.9,1.4,2.1,1.4,3.6c0,1.4-0.3,2.6-0.9,3.7
		c-0.6,1.1-1.4,2-2.4,2.6S90.2,24,88.9,24C87.2,24,85.9,23.6,85,22.7L85,22.7z M91.8,22.2c0.9-0.5,1.5-1.2,2-2.2
		c0.5-0.9,0.7-2,0.7-3.1c0-1.3-0.4-2.3-1.1-3c-0.7-0.7-1.8-1.1-3.1-1.1c-1.1,0-2,0.3-2.9,0.8c-0.9,0.5-1.5,1.3-2,2.2
		c-0.5,0.9-0.7,2-0.7,3.1c0,1.3,0.4,2.3,1.1,3c0.7,0.7,1.8,1.1,3.1,1.1C90,23,91,22.8,91.8,22.2z"/>
	<path id="path930" inkscape:connector-curvature="0" d="M117.3,11.9l-6.8,12h-1.1l-2.2-10.4l-6,10.4h-1.1l-2.4-12h1.1l2.1,10.7
		l6.1-10.7h1l2.2,10.7l6-10.7L117.3,11.9z"/>
	<path id="path932" inkscape:connector-curvature="0" d="M118.1,18.2c0,0.3,0,0.6,0,0.8c0,1.3,0.4,2.3,1.1,3c0.8,0.7,1.9,1,3.3,1
		c0.8,0,1.6-0.1,2.3-0.4c0.7-0.3,1.3-0.7,1.8-1.2l0.5,0.8c-0.5,0.6-1.2,1-2.1,1.4c-0.8,0.3-1.7,0.5-2.7,0.5c-1.7,0-3-0.4-4-1.3
		c-1-0.9-1.5-2.1-1.5-3.7c0-1.3,0.3-2.6,0.9-3.7c0.6-1.1,1.4-1.9,2.3-2.6c1-0.6,2.1-0.9,3.4-0.9c1.6,0,2.8,0.4,3.7,1.3
		c0.9,0.9,1.4,2.1,1.4,3.7c0,0.4,0,0.8-0.1,1.3L118.1,18.2z M120.1,14.1c-0.9,0.8-1.6,1.9-1.9,3.2h9.2c0-0.1,0-0.3,0-0.6
		c0-1.2-0.4-2.2-1.1-2.8c-0.7-0.7-1.7-1-2.9-1C122.1,12.8,121,13.3,120.1,14.1z"/>
	<path id="path934" inkscape:connector-curvature="0" d="M135.9,12.5c0.8-0.4,1.9-0.7,3-0.7l-0.2,1.1l-0.4,0c-1.4,0-2.5,0.4-3.4,1.2
		s-1.5,2-1.8,3.6L132,24h-1.1l2.4-12h1.1l-0.5,2.5C134.4,13.6,135.1,12.9,135.9,12.5L135.9,12.5z"/>
</g>
</svg>
