<?xml version="1.0" encoding="utf-8"?>
<!-- Generator: Adobe Illustrator 16.0.0, SVG Export Plug-In . SVG Version: 6.00 Build 0)  -->
<!DOCTYPE svg PUBLIC "-//W3C//DTD SVG 1.1//EN" "http://www.w3.org/Graphics/SVG/1.1/DTD/svg11.dtd">
<svg version="1.1" id="Layer_1" xmlns="http://www.w3.org/2000/svg" xmlns:xlink="http://www.w3.org/1999/xlink" x="0px" y="0px"
	 width="300px" height="36px" viewBox="0 0 300 36" enable-background="new 0 0 300 36" xml:space="preserve">
<g>
	<path fill="#4256E7" d="M57.479,9.328v16.799h-1.889L45.913,13.6v12.527h-2.304V9.328h1.889l9.677,12.528V9.328H57.479z"/>
	<path fill="#4256E7" d="M73.031,20.535h-9.907c0.138,1.121,0.61,2.02,1.417,2.701c0.806,0.68,1.809,1.02,3.006,1.02
		c1.459,0,2.634-0.512,3.525-1.537l1.221,1.488c-0.553,0.672-1.241,1.186-2.062,1.537c-0.822,0.352-1.74,0.527-2.753,0.527
		c-1.291,0-2.435-0.275-3.433-0.828s-1.771-1.324-2.315-2.316c-0.545-0.992-0.818-2.111-0.818-3.359
		c0-1.232,0.265-2.344,0.795-3.336c0.53-0.992,1.259-1.764,2.188-2.316c0.929-0.552,1.978-0.828,3.145-0.828
		s2.208,0.276,3.122,0.828c0.914,0.552,1.628,1.324,2.143,2.316c0.515,0.992,0.772,2.127,0.772,3.408
		C73.077,20.016,73.061,20.248,73.031,20.535z M64.379,16.239c-0.714,0.672-1.133,1.552-1.255,2.64h7.833
		c-0.123-1.071-0.542-1.947-1.256-2.628c-0.714-0.68-1.601-1.02-2.661-1.02C65.98,15.231,65.093,15.567,64.379,16.239z"/>
	<path fill="#4256E7" d="M83.629,26.127l-3.525-4.871l-3.571,4.871h-2.465l4.815-6.504l-4.585-6.216h2.465l3.364,4.584l3.341-4.584
		h2.419l-4.608,6.216l4.861,6.504H83.629z"/>
	<path fill="#4256E7" d="M95.471,25.383c-0.322,0.289-0.722,0.508-1.198,0.66c-0.477,0.152-0.968,0.229-1.475,0.229
		c-1.229,0-2.181-0.344-2.857-1.031c-0.676-0.689-1.014-1.672-1.014-2.953v-6.984h-2.074v-1.896h2.074v-2.784h2.211v2.784h3.502
		v1.896H91.14v6.888c0,0.688,0.165,1.217,0.496,1.584c0.33,0.369,0.802,0.553,1.417,0.553c0.676,0,1.251-0.201,1.728-0.602
		L95.471,25.383z"/>
	<path fill="#4256E7" d="M100.379,12.303v1.104h3.548v1.896h-3.502v10.824h-2.211V15.303H96.14v-1.896h2.074v-1.128
		c0-1.264,0.353-2.264,1.06-3c0.707-0.736,1.697-1.104,2.972-1.104c0.491,0,0.952,0.064,1.382,0.192s0.798,0.312,1.106,0.552
		l-0.668,1.752c-0.507-0.4-1.076-0.6-1.705-0.6C101.039,10.071,100.379,10.815,100.379,12.303z M106.024,8.319h2.211v17.808h-2.211
		V8.319z"/>
	<path fill="#4256E7" d="M114.456,25.432c-0.968-0.561-1.724-1.332-2.269-2.316c-0.545-0.984-0.818-2.1-0.818-3.348
		c0-1.249,0.272-2.364,0.818-3.348c0.545-0.984,1.301-1.752,2.269-2.304c0.968-0.552,2.059-0.828,3.272-0.828
		c1.213,0,2.3,0.276,3.26,0.828c0.96,0.552,1.713,1.32,2.258,2.304c0.545,0.984,0.818,2.1,0.818,3.348
		c0,1.248-0.273,2.363-0.818,3.348s-1.298,1.756-2.258,2.316s-2.047,0.84-3.26,0.84C116.514,26.271,115.423,25.992,114.456,25.432z
		 M119.835,23.691c0.622-0.375,1.109-0.904,1.463-1.584s0.53-1.459,0.53-2.34c0-0.88-0.177-1.66-0.53-2.34
		c-0.354-0.68-0.841-1.204-1.463-1.572c-0.622-0.368-1.324-0.552-2.107-0.552c-0.784,0-1.486,0.185-2.108,0.552
		c-0.622,0.368-1.114,0.892-1.475,1.572c-0.361,0.681-0.542,1.46-0.542,2.34c0,0.881,0.181,1.66,0.542,2.34
		c0.36,0.68,0.853,1.209,1.475,1.584c0.622,0.377,1.324,0.564,2.108,0.564C118.511,24.256,119.213,24.068,119.835,23.691z"/>
	<path fill="#4256E7" d="M145.307,13.407l-4.562,12.72h-2.119l-3.525-9.647l-3.571,9.647h-2.12l-4.538-12.72h2.097l3.548,10.128
		l3.687-10.128h1.866l3.617,10.177l3.641-10.177H145.307z"/>
	<path fill="#4256E7" d="M157.355,11.416h-5.53V9.328h13.341v2.088h-5.53v14.711h-2.28V11.416z"/>
	<path fill="#4256E7" d="M168.092,25.432c-0.968-0.561-1.724-1.332-2.27-2.316c-0.545-0.984-0.817-2.1-0.817-3.348
		c0-1.249,0.272-2.364,0.817-3.348c0.546-0.984,1.302-1.752,2.27-2.304c0.968-0.552,2.059-0.828,3.272-0.828
		c1.213,0,2.3,0.276,3.26,0.828c0.96,0.552,1.713,1.32,2.258,2.304c0.545,0.984,0.818,2.1,0.818,3.348
		c0,1.248-0.273,2.363-0.818,3.348s-1.298,1.756-2.258,2.316s-2.047,0.84-3.26,0.84C170.15,26.271,169.06,25.992,168.092,25.432z
		 M173.472,23.691c0.622-0.375,1.109-0.904,1.463-1.584s0.53-1.459,0.53-2.34c0-0.88-0.177-1.66-0.53-2.34
		c-0.354-0.68-0.841-1.204-1.463-1.572c-0.622-0.368-1.324-0.552-2.107-0.552c-0.784,0-1.486,0.185-2.108,0.552
		c-0.622,0.368-1.114,0.892-1.475,1.572c-0.361,0.681-0.542,1.46-0.542,2.34c0,0.881,0.181,1.66,0.542,2.34
		c0.36,0.68,0.853,1.209,1.475,1.584c0.622,0.377,1.324,0.564,2.108,0.564C172.147,24.256,172.85,24.068,173.472,23.691z"/>
	<path fill="#4256E7" d="M198.943,13.407l-4.562,12.72h-2.119l-3.525-9.647l-3.571,9.647h-2.12l-4.538-12.72h2.097l3.548,10.128
		l3.687-10.128h1.866l3.617,10.177l3.641-10.177H198.943z"/>
	<path fill="#4256E7" d="M211.868,20.535h-9.907c0.138,1.121,0.61,2.02,1.417,2.701c0.807,0.68,1.809,1.02,3.007,1.02
		c1.459,0,2.634-0.512,3.524-1.537l1.222,1.488c-0.553,0.672-1.241,1.186-2.062,1.537s-1.739,0.527-2.753,0.527
		c-1.29,0-2.435-0.275-3.433-0.828c-0.999-0.553-1.771-1.324-2.316-2.316c-0.545-0.992-0.817-2.111-0.817-3.359
		c0-1.232,0.265-2.344,0.795-3.336c0.529-0.992,1.259-1.764,2.188-2.316c0.93-0.552,1.978-0.828,3.146-0.828
		c1.167,0,2.208,0.276,3.121,0.828c0.914,0.552,1.628,1.324,2.144,2.316c0.514,0.992,0.771,2.127,0.771,3.408
		C211.914,20.016,211.898,20.248,211.868,20.535z M203.217,16.239c-0.715,0.672-1.133,1.552-1.256,2.64h7.833
		c-0.123-1.071-0.541-1.947-1.255-2.628c-0.715-0.68-1.602-1.02-2.661-1.02C204.817,15.231,203.931,15.567,203.217,16.239z"/>
	<path fill="#4256E7" d="M218.849,13.863c0.753-0.384,1.667-0.576,2.742-0.576v2.232c-0.123-0.016-0.292-0.024-0.507-0.024
		c-1.198,0-2.14,0.372-2.822,1.116c-0.684,0.744-1.025,1.804-1.025,3.18v6.336h-2.212v-12.72h2.12v2.136
		C217.527,14.808,218.097,14.248,218.849,13.863z"/>
	<path fill="#4256E7" d="M223.71,25.803c-0.308-0.311-0.461-0.707-0.461-1.188c0-0.463,0.153-0.852,0.461-1.164
		s0.676-0.467,1.106-0.467c0.43,0,0.79,0.15,1.082,0.455s0.438,0.695,0.438,1.176s-0.15,0.877-0.449,1.188
		c-0.3,0.312-0.657,0.469-1.071,0.469C224.386,26.271,224.018,26.115,223.71,25.803z"/>
</g>
<g>
	<g>
		<path fill="#4256E7" d="M18.456,0C8.816,0,1,7.814,1,17.454c0,9.64,7.816,17.456,17.456,17.456
			c9.638,0,17.454-7.815,17.454-17.456C35.909,7.814,28.093,0,18.456,0z M18.527,33.601c-8.958,0-16.22-7.261-16.22-16.22
			c0-8.957,7.262-16.219,16.22-16.219s16.22,7.262,16.22,16.219C34.747,26.34,27.485,33.601,18.527,33.601z"/>
		<g>
			<circle fill="#4256E7" cx="19.454" cy="14.865" r="0.581"/>
			<circle fill="#4256E7" cx="21.317" cy="16.239" r="0.58"/>
			<path fill="#4256E7" d="M27.552,7.783c-0.025-0.006-0.05-0.006-0.076-0.009c-0.055-0.022-0.114-0.036-0.176-0.036h-6.416
				c0.006-0.042,0.011-0.084,0.011-0.129V6.233c0-0.151-0.042-0.288-0.11-0.401c-0.064-0.272-0.37-0.479-0.741-0.479h-3.341
				c-0.396,0-0.719,0.238-0.748,0.539c-0.07,0.112-0.109,0.25-0.109,0.4v1.375c0,0.025,0.002,0.047,0.005,0.072H9.172
				c-0.092,0-0.174,0.026-0.25,0.071C8.656,7.92,8.508,8.237,8.589,8.561l3.417,13.619c0.088,0.35,0.414,0.57,0.723,0.493
				c0.021-0.007,0.038-0.015,0.056-0.021c0.059,0.01,0.122,0.016,0.185,0.016h2.463v11.41h1.162v-11.41h3.394V34.13h1.162V22.668
				h2.586c0.02,0,0.039-0.002,0.057-0.002c0.006,0,0.011,0.005,0.017,0.007c0.313,0.077,0.635-0.144,0.724-0.493l3.419-13.619
				C28.043,8.211,27.863,7.861,27.552,7.783z M13.036,21.506l-0.7-2.792c0.104,0.019,0.218,0.03,0.334,0.03l11.532-0.008
				l-0.694,2.77H13.036z M10.678,12.115c0.201,0.056,0.439,0.09,0.694,0.09l3.281-0.002c-0.009,0.033-0.012,0.065-0.012,0.102
				l0.003,5.282l-1.976,0.002c-0.218,0-0.421,0.039-0.59,0.101L10.678,12.115z M24.49,17.594c-0.072-0.008-0.146-0.012-0.223-0.012
				l-4.279,0.003c0-0.019,0.004-0.034,0.004-0.051v-0.853c0-0.38-0.26-0.688-0.582-0.688c-0.32,0-0.58,0.308-0.58,0.688v0.853
				c0,0.017,0.003,0.033,0.003,0.053l-3.03,0.001l-0.004-5.284c0-0.034-0.005-0.068-0.014-0.101l3.139-0.001v0.815
				c0,0.379,0.26,0.689,0.58,0.689c0.322,0,0.582-0.31,0.582-0.689v-0.817l0.848-0.001c-0.067,0.129-0.106,0.285-0.106,0.453v1.573
				c0,0.434,0.26,0.787,0.582,0.787c0.321,0,0.581-0.353,0.581-0.787V12.65c0-0.168-0.039-0.325-0.106-0.453l3.658-0.002
				c0.106,0,0.207-0.007,0.305-0.017L24.49,17.594z M26.119,11.105c-0.174-0.039-0.369-0.062-0.577-0.062l-14.169,0.009
				c-0.359,0.001-0.685,0.067-0.917,0.174L9.873,8.9h16.798L26.119,11.105z M17.007,7.667V6.515h2.726v1.094
				c0,0.045,0.004,0.087,0.011,0.129h-2.742C17.003,7.713,17.007,7.691,17.007,7.667z"/>
		</g>
	</g>
</g>
<g>
</g>
<g>
</g>
<g>
</g>
<g>
</g>
<g>
</g>
<g>
</g>
<g>
</g>
<g>
</g>
<g>
</g>
<g>
</g>
<g>
</g>
<g>
</g>
<g>
</g>
<g>
</g>
<g>
</g>
</svg>
