<?xml version="1.0" encoding="UTF-8" standalone="no"?>
<!-- Generator: Adobe Illustrator 16.0.0, SVG Export Plug-In . SVG Version: 6.00 Build 0)  -->

<svg
   xmlns:dc="http://purl.org/dc/elements/1.1/"
   xmlns:cc="http://creativecommons.org/ns#"
   xmlns:rdf="http://www.w3.org/1999/02/22-rdf-syntax-ns#"
   xmlns:svg="http://www.w3.org/2000/svg"
   xmlns="http://www.w3.org/2000/svg"
   xmlns:sodipodi="http://sodipodi.sourceforge.net/DTD/sodipodi-0.dtd"
   xmlns:inkscape="http://www.inkscape.org/namespaces/inkscape"
   version="1.1"
   id="Layer_1"
   x="0px"
   y="0px"
   width="34.91"
   height="34.91"
   viewBox="0 0 34.909999 34.91"
   enable-background="new 0 0 300 36"
   xml:space="preserve"
   sodipodi:docname="brand-icon.svg"
   inkscape:version="0.92.2 5c3e80d, 2017-08-06"><metadata
     id="metadata3893"><rdf:RDF><cc:Work
         rdf:about=""><dc:format>image/svg+xml</dc:format><dc:type
           rdf:resource="http://purl.org/dc/dcmitype/StillImage" /><dc:title></dc:title></cc:Work></rdf:RDF></metadata><defs
     id="defs3891" /><sodipodi:namedview
     pagecolor="#ffffff"
     bordercolor="#666666"
     borderopacity="1"
     objecttolerance="10"
     gridtolerance="10"
     guidetolerance="10"
     inkscape:pageopacity="0"
     inkscape:pageshadow="2"
     inkscape:window-width="1221"
     inkscape:window-height="767"
     id="namedview3889"
     showgrid="false"
     inkscape:zoom="2.8284271"
     inkscape:cx="97.010994"
     inkscape:cy="14.089001"
     inkscape:window-x="0"
     inkscape:window-y="0"
     inkscape:window-maximized="0"
     inkscape:current-layer="Layer_1"
     inkscape:measure-start="0,0"
     inkscape:measure-end="0,0" /><g
     id="g3856"
     transform="translate(-1)"><g
       id="g3854"><path
         d="M 18.456,0 C 8.816,0 1,7.814 1,17.454 1,27.094 8.816,34.91 18.456,34.91 28.094,34.91 35.91,27.095 35.91,17.454 35.909,7.814 28.093,0 18.456,0 Z m 0.071,33.601 c -8.958,0 -16.22,-7.261 -16.22,-16.22 0,-8.957 7.262,-16.219 16.22,-16.219 8.958,0 16.22,7.262 16.22,16.219 0,8.959 -7.262,16.22 -16.22,16.22 z"
         id="path3844"
         inkscape:connector-curvature="0"
         style="fill:#4256e7" /><g
         id="g3852"><circle
           cx="19.454"
           cy="14.865"
           r="0.58099997"
           id="circle3846"
           style="fill:#4256e7" /><circle
           cx="21.316999"
           cy="16.239"
           r="0.57999998"
           id="circle3848"
           style="fill:#4256e7" /><path
           d="M 27.552,7.783 C 27.527,7.777 27.502,7.777 27.476,7.774 27.421,7.752 27.362,7.738 27.3,7.738 H 20.884 C 20.89,7.696 20.895,7.654 20.895,7.609 V 6.233 c 0,-0.151 -0.042,-0.288 -0.11,-0.401 C 20.721,5.56 20.415,5.353 20.044,5.353 h -3.341 c -0.396,0 -0.719,0.238 -0.748,0.539 -0.07,0.112 -0.109,0.25 -0.109,0.4 v 1.375 c 0,0.025 0.002,0.047 0.005,0.072 H 9.172 C 9.08,7.739 8.998,7.765 8.922,7.81 8.656,7.92 8.508,8.237 8.589,8.561 l 3.417,13.619 c 0.088,0.35 0.414,0.57 0.723,0.493 0.021,-0.007 0.038,-0.015 0.056,-0.021 0.059,0.01 0.122,0.016 0.185,0.016 h 2.463 v 11.41 h 1.162 v -11.41 h 3.394 V 34.13 h 1.162 V 22.668 h 2.586 c 0.02,0 0.039,-0.002 0.057,-0.002 0.006,0 0.011,0.005 0.017,0.007 0.313,0.077 0.635,-0.144 0.724,-0.493 L 27.954,8.561 c 0.089,-0.35 -0.091,-0.7 -0.402,-0.778 z m -14.516,13.723 -0.7,-2.792 c 0.104,0.019 0.218,0.03 0.334,0.03 l 11.532,-0.008 -0.694,2.77 z m -2.358,-9.391 c 0.201,0.056 0.439,0.09 0.694,0.09 l 3.281,-0.002 c -0.009,0.033 -0.012,0.065 -0.012,0.102 l 0.003,5.282 -1.976,0.002 c -0.218,0 -0.421,0.039 -0.59,0.101 z m 13.812,5.479 c -0.072,-0.008 -0.146,-0.012 -0.223,-0.012 l -4.279,0.003 c 0,-0.019 0.004,-0.034 0.004,-0.051 v -0.853 c 0,-0.38 -0.26,-0.688 -0.582,-0.688 -0.32,0 -0.58,0.308 -0.58,0.688 v 0.853 c 0,0.017 0.003,0.033 0.003,0.053 l -3.03,0.001 -0.004,-5.284 c 0,-0.034 -0.005,-0.068 -0.014,-0.101 l 3.139,-10e-4 v 0.815 c 0,0.379 0.26,0.689 0.58,0.689 0.322,0 0.582,-0.31 0.582,-0.689 V 12.2 l 0.848,-10e-4 c -0.067,0.129 -0.106,0.285 -0.106,0.453 v 1.573 c 0,0.434 0.26,0.787 0.582,0.787 0.321,0 0.581,-0.353 0.581,-0.787 V 12.65 c 0,-0.168 -0.039,-0.325 -0.106,-0.453 l 3.658,-0.002 c 0.106,0 0.207,-0.007 0.305,-0.017 z m 1.629,-6.489 C 25.945,11.066 25.75,11.043 25.542,11.043 l -14.169,0.009 c -0.359,0.001 -0.685,0.067 -0.917,0.174 L 9.873,8.9 H 26.671 Z M 17.007,7.667 V 6.515 h 2.726 v 1.094 c 0,0.045 0.004,0.087 0.011,0.129 h -2.742 c 0.001,-0.025 0.005,-0.047 0.005,-0.071 z"
           id="path3850"
           inkscape:connector-curvature="0"
           style="fill:#4256e7" /></g></g></g><g
     id="g3858"
     transform="translate(-1)" /><g
     id="g3860"
     transform="translate(-1)" /><g
     id="g3862"
     transform="translate(-1)" /><g
     id="g3864"
     transform="translate(-1)" /><g
     id="g3866"
     transform="translate(-1)" /><g
     id="g3868"
     transform="translate(-1)" /><g
     id="g3870"
     transform="translate(-1)" /><g
     id="g3872"
     transform="translate(-1)" /><g
     id="g3874"
     transform="translate(-1)" /><g
     id="g3876"
     transform="translate(-1)" /><g
     id="g3878"
     transform="translate(-1)" /><g
     id="g3880"
     transform="translate(-1)" /><g
     id="g3882"
     transform="translate(-1)" /><g
     id="g3884"
     transform="translate(-1)"
     inkscape:export-xdpi="88"
     inkscape:export-ydpi="88" /><g
     id="g3886"
     transform="translate(-1)" /></svg>